<svg width="800" height="800" viewBox="0 0 800 800" fill="none" xmlns="http://www.w3.org/2000/svg">
<g clip-path="url(#clip0_117_13)">
<path d="M300.932 661.222C311.089 663.362 317.587 673.333 315.444 683.488C313.578 692.335 305.77 698.41 297.073 698.41C295.789 698.41 294.486 698.278 293.179 698.002C183.567 674.895 97.8111 589.137 74.7078 479.525C72.5674 469.369 79.0658 459.4 89.2225 457.259C99.3709 455.121 109.346 461.617 111.488 471.772C131.52 566.82 205.883 641.184 300.932 661.222ZM370.699 420.832C370.699 410.451 362.286 402.038 351.906 402.038H351.841C341.461 402.038 333.081 410.451 333.081 420.832C333.081 431.212 341.525 439.625 351.906 439.625C362.286 439.625 370.699 431.21 370.699 420.832ZM800 46.0878V274.949C800 285.329 791.587 293.743 781.207 293.743C770.826 293.743 762.413 285.329 762.413 274.949V252.086H471.003L407.288 362.449C418.392 372.994 426.505 386.669 430.193 402.04H520.614V312.532C520.614 302.152 529.027 293.738 539.407 293.738C549.787 293.738 558.2 302.152 558.2 312.532V420.276C558.205 420.462 558.209 420.648 558.209 420.836C558.209 482.555 530.971 538.031 487.882 575.875C487.443 576.338 486.976 576.785 486.483 577.211C469.475 591.866 450.316 603.524 429.831 611.881C406.024 621.63 380.006 627.055 352.756 627.168C352.714 627.174 352.676 627.168 352.639 627.168C352.589 627.168 352.547 627.168 352.499 627.17C352.447 627.172 352.399 627.172 352.35 627.17C352.298 627.168 352.244 627.168 352.196 627.17C352.144 627.17 352.087 627.17 352.037 627.17C351.979 627.17 351.872 627.155 351.874 627.17C314.768 627.17 279.906 617.318 249.785 600.099C249.425 599.92 249.066 599.728 248.713 599.525C248.34 599.31 247.976 599.082 247.623 598.846C186.593 562.966 145.54 496.604 145.54 420.838C145.54 345.071 186.595 278.71 247.625 242.829C247.978 242.593 248.342 242.364 248.716 242.151C249.068 241.946 249.425 241.756 249.787 241.576C279.912 224.353 314.764 214.506 351.883 214.506C353.384 214.506 354.846 214.681 356.245 215.015C357.646 214.681 359.106 214.506 360.607 214.506H459.83C460.057 214.499 460.289 214.499 460.517 214.506H762.417V106.542H360.603C359.106 106.542 357.648 106.366 356.253 106.037C354.858 106.366 353.401 106.542 351.904 106.542C178.577 106.542 37.5867 247.532 37.5867 420.832C37.5867 594.131 178.577 735.121 351.879 735.121C472.86 735.121 584.455 664.396 636.182 554.939C637.051 553.106 638.174 551.477 639.494 550.076C657.2 510.985 667.131 467.658 667.308 422.07C667.304 421.913 667.302 421.759 667.302 421.6V312.53C667.302 302.149 675.715 293.736 686.096 293.736C696.476 293.736 704.889 302.149 704.889 312.53V420.274C704.893 420.46 704.897 420.646 704.897 420.834C704.897 614.858 547.045 772.71 353.019 772.71C352.639 772.71 352.261 772.71 351.879 772.71C157.852 772.706 0 614.856 0 420.832C0 226.807 157.852 68.9551 351.879 68.9551C353.38 68.9551 354.842 69.1305 356.241 69.4646C357.642 69.1305 359.101 68.9551 360.603 68.9551H762.413V46.0878C762.413 35.7076 770.826 27.2944 781.207 27.2944C791.587 27.2944 800 35.7076 800 46.0878ZM184.164 402.038H273.558C277.248 386.665 285.358 372.992 296.467 362.445L251.787 285.052C214.917 312.302 189.489 354.18 184.164 402.038ZM251.783 556.612L296.465 479.218C285.358 468.671 277.246 454.998 273.556 439.625H184.162C189.489 487.49 214.913 529.363 251.783 556.612ZM419.449 575.455L374.763 498.051C367.506 500.206 359.826 501.363 351.881 501.363C343.933 501.363 336.255 500.206 328.997 498.051L284.308 575.457C305.008 584.536 327.867 589.579 351.881 589.579C351.922 589.579 351.966 589.579 352.012 589.579H352.016C352.071 589.579 352.115 589.579 352.165 589.579C352.208 589.579 352.265 589.579 352.302 589.579C352.35 589.579 352.394 589.577 352.444 589.579C352.484 589.575 352.534 589.577 352.576 589.577C352.593 589.577 352.597 589.577 352.616 589.577C374.019 589.483 395.036 585.324 414.602 577.491C416.233 576.835 417.843 576.157 419.449 575.455ZM351.879 463.774C375.556 463.774 394.819 444.509 394.819 420.832C394.819 397.154 375.556 377.889 351.879 377.889C328.197 377.889 308.932 397.154 308.932 420.832C308.932 444.509 328.197 463.774 351.879 463.774ZM407.288 479.216L451.97 556.609C488.834 529.361 514.259 487.483 519.582 439.627H430.193C426.505 454.996 418.392 468.671 407.288 479.216ZM427.601 252.084H360.603C359.106 252.084 357.648 251.909 356.253 251.579C354.858 251.909 353.401 252.084 351.904 252.084C327.879 252.084 305.012 257.127 284.306 266.21L328.992 343.612C336.251 341.457 343.929 340.3 351.876 340.3C359.822 340.3 367.502 341.457 374.758 343.612L427.601 252.084Z" fill="white"/>
</g>
<defs>
<clipPath id="clip0_117_13">
<rect width="800" height="800" fill="white"/>
</clipPath>
</defs>
</svg>
