<svg width="800" height="800" viewBox="0 0 800 800" fill="none" xmlns="http://www.w3.org/2000/svg">
<path d="M741.138 237.5H480.175L455.175 212.5H344.825L319.825 237.5H58.8625C33.3 237.5 12.5 258.3 12.5 283.862C12.5 287.175 12.85 290.487 13.55 293.712L53.8875 479.2C67.525 541.95 124.038 587.5 188.25 587.5H611.75C675.962 587.5 732.462 541.95 746.112 479.213L786.45 293.7C787.15 290.488 787.5 287.175 787.5 283.862C787.5 258.3 766.7 237.5 741.138 237.5ZM762.012 288.4L721.675 473.9C710.525 525.237 664.3 562.5 611.75 562.5H188.25C135.713 562.5 89.4875 525.237 78.325 473.887L37.9875 288.4C37.6625 286.925 37.5 285.4 37.5 283.862C37.5 272.087 47.0875 262.5 58.8625 262.5H330.175L355.175 237.5H444.825L469.825 262.5H741.138C752.913 262.5 762.5 272.087 762.5 283.862C762.5 285.4 762.337 286.925 762.012 288.4Z" fill="#F5F5F5"/>
<path d="M419.825 312.5H380.175L355.175 287.5H63.3625L102.738 468.575C111.425 508.525 147.375 537.5 188.25 537.5H611.75C652.613 537.5 688.575 508.525 697.263 468.587L736.638 287.5H444.825L419.825 312.5ZM637.5 437.587H612.5V387.5H637.5V437.587ZM662.5 387.5H689.3L678.413 437.587H662.5V387.5ZM637.5 506.637C629.775 510.187 621.35 512.325 612.5 512.437V462.587H637.5V506.637ZM337.5 362.5H312.5V312.5H337.5V362.5ZM537.5 437.587H512.5V387.5H537.5V437.587ZM562.5 387.5H587.5V437.587H562.5V387.5ZM487.5 437.587H462.5V387.5H487.5V437.587ZM437.5 437.587H412.5V387.5H437.5V437.587ZM387.5 437.587H362.5V387.5H387.5V437.587ZM337.5 437.587H312.5V387.5H337.5V437.587ZM262.5 387.5H287.5V437.587H262.5V387.5ZM237.5 437.587H212.5V387.5H237.5V437.587ZM287.5 362.5H262.5V312.5H287.5V362.5ZM237.5 362.5H212.5V312.5H237.5V362.5ZM187.5 362.5H162.5V312.5H187.5V362.5ZM187.5 387.5V437.587H162.5V387.5H187.5ZM162.5 462.587H187.5V512.437C178.65 512.325 170.225 510.187 162.5 506.637V462.587ZM212.5 462.587H237.5V512.5H212.5V462.587ZM262.5 462.587H287.5V512.5H262.5V462.587ZM312.5 462.587H337.5V512.5H312.5V462.587ZM362.5 462.587H387.5V512.5H362.5V462.587ZM412.5 462.587H437.5V512.5H412.5V462.587ZM462.5 462.587H487.5V512.5H462.5V462.587ZM512.5 462.587H537.5V512.5H512.5V462.587ZM562.5 462.587H587.5V512.5H562.5V462.587ZM612.5 362.5V312.5H637.5V362.5H612.5ZM587.5 362.5H562.5V312.5H587.5V362.5ZM537.5 362.5H512.5V312.5H537.5V362.5ZM487.5 362.5H462.5V312.5H487.5V362.5ZM430.175 337.5L437.5 330.175V362.5H412.5V337.5H430.175ZM387.5 337.5V362.5H362.5V330.175L369.825 337.5H387.5ZM137.5 312.5V362.5H105.275L94.4001 312.5H137.5ZM110.713 387.5H137.5V486.013C132.688 479.288 129.013 471.675 127.188 463.263L110.713 387.5ZM662.5 486.025V462.587H672.975L672.825 463.275C671 471.688 667.313 479.3 662.5 486.025ZM694.738 362.5H662.5V312.5H705.6L694.738 362.5Z" fill="#F5F5F5"/>
</svg>
