<svg width="800" height="800" viewBox="0 0 800 800" fill="none" xmlns="http://www.w3.org/2000/svg">
<g clip-path="url(#clip0_116_7)">
<path d="M672.029 125.181C672.029 133.576 665.223 140.382 656.829 140.382H380.758C372.363 140.382 365.557 133.576 365.557 125.181C365.557 116.787 372.363 109.981 380.758 109.981H656.829C665.223 109.981 672.029 116.787 672.029 125.181ZM621.168 220.664L385.341 146.033C377.338 143.49 368.795 147.937 366.26 155.936C363.725 163.939 368.16 172.482 376.163 175.017L611.99 249.648C613.514 250.131 615.065 250.363 616.581 250.363C623.03 250.363 629.019 246.224 631.071 239.745C633.61 231.738 629.175 223.195 621.168 220.664ZM380.754 105.04C382.27 105.04 383.821 104.809 385.345 104.326L621.172 29.6944C629.175 27.1597 633.61 18.6207 631.075 10.6138C628.544 2.61443 620.001 -1.82416 611.994 0.71055L376.171 75.3421C368.168 77.8768 363.733 86.4157 366.268 94.4227C368.312 100.898 374.298 105.04 380.754 105.04ZM444.357 383.482H127.971V697.946H444.357V383.482ZM127.971 728.348V784.799C127.971 793.194 134.777 800 143.171 800H429.157C437.551 800 444.357 793.194 444.357 784.799V728.348H127.971ZM429.157 290.777H422.875C403.996 238.483 356.509 201.454 301.365 195.644V167.451H307.54C315.935 167.451 322.741 160.644 322.741 152.25V94.2973C322.741 85.9027 315.935 79.0966 307.54 79.0966H264.788C256.394 79.0966 249.587 85.9027 249.587 94.2973V152.25C249.587 160.644 256.394 167.451 264.788 167.451H270.963V195.644C215.823 201.454 168.332 238.479 149.453 290.777H143.171C134.777 290.777 127.971 297.583 127.971 305.978V353.081H444.357V305.978C444.357 297.583 437.551 290.777 429.157 290.777Z" fill="white"/>
</g>
<defs>
<clipPath id="clip0_116_7">
<rect width="800" height="800" fill="white"/>
</clipPath>
</defs>
</svg>
