<svg width="438" height="438" viewBox="0 0 438 438" fill="none" xmlns="http://www.w3.org/2000/svg">
<path d="M219 401.5C206.07 401.519 193.551 396.962 183.66 388.635C173.768 380.308 167.143 368.75 164.957 356.006C162.771 343.262 165.166 330.156 171.717 319.009C178.268 307.862 188.553 299.393 200.75 295.102V109.5C195.91 109.5 191.268 107.577 187.845 104.155C184.423 100.732 182.5 96.0902 182.5 91.25V54.75C182.5 49.9098 184.423 45.2678 187.845 41.8453C191.268 38.4228 195.91 36.5 200.75 36.5H237.25C242.09 36.5 246.732 38.4228 250.155 41.8453C253.577 45.2678 255.5 49.9098 255.5 54.75V91.25C255.5 96.0902 253.577 100.732 250.155 104.155C246.732 107.577 242.09 109.5 237.25 109.5V295.102C249.447 299.393 259.732 307.862 266.283 319.009C272.835 330.156 275.229 343.262 273.044 356.006C270.858 368.75 264.232 380.308 254.341 388.635C244.449 396.962 231.93 401.519 219 401.5ZM219 328.5C215.391 328.5 211.862 329.57 208.861 331.576C205.86 333.581 203.521 336.431 202.139 339.766C200.758 343.101 200.397 346.77 201.101 350.31C201.805 353.851 203.543 357.102 206.095 359.655C208.648 362.207 211.9 363.945 215.44 364.649C218.98 365.353 222.649 364.992 225.984 363.611C229.319 362.229 232.169 359.89 234.174 356.889C236.18 353.888 237.25 350.359 237.25 346.75C237.25 341.91 235.327 337.268 231.905 333.845C228.482 330.423 223.84 328.5 219 328.5Z" fill="#FCC53A"/>
<path d="M255.5 282.875H251.12L178.12 264.625C175.715 264.128 173.435 263.15 171.416 261.751C169.398 260.351 167.682 258.559 166.373 256.481C165.064 254.403 164.187 252.082 163.797 249.657C163.406 247.232 163.508 244.753 164.098 242.369C164.688 239.985 165.753 237.744 167.23 235.782C168.706 233.819 170.564 232.174 172.691 230.946C174.818 229.719 177.171 228.933 179.609 228.636C182.048 228.339 184.52 228.538 186.88 229.22L259.88 247.47C262.277 247.757 264.593 248.514 266.697 249.697C268.802 250.88 270.652 252.466 272.143 254.364C273.635 256.262 274.738 258.435 275.389 260.759C276.04 263.083 276.228 265.513 275.94 267.91C275.652 270.306 274.896 272.623 273.713 274.727C272.53 276.831 270.944 278.682 269.046 280.173C267.148 281.664 264.975 282.767 262.651 283.419C260.327 284.07 257.897 284.257 255.5 283.97V282.875ZM255.5 228.125H251.12L178.12 209.875C173.588 208.565 169.739 205.551 167.38 201.465C165.022 197.379 164.337 192.538 165.47 187.959C166.604 183.379 169.466 179.416 173.458 176.901C177.449 174.386 182.26 173.515 186.88 174.47L259.88 192.72C262.277 193.007 264.593 193.764 266.697 194.947C268.802 196.13 270.652 197.716 272.143 199.614C273.635 201.512 274.738 203.685 275.389 206.009C276.04 208.333 276.228 210.763 275.94 213.16C275.652 215.556 274.896 217.873 273.713 219.977C272.53 222.081 270.944 223.932 269.046 225.423C267.148 226.914 264.975 228.017 262.651 228.669C260.327 229.32 257.897 229.507 255.5 229.22V228.125ZM255.5 173.375H251.12L178.12 155.125C175.715 154.628 173.435 153.65 171.416 152.251C169.398 150.851 167.682 149.059 166.373 146.981C165.064 144.903 164.187 142.582 163.797 140.157C163.406 137.732 163.508 135.253 164.098 132.869C164.688 130.485 165.753 128.244 167.23 126.282C168.706 124.319 170.564 122.674 172.691 121.446C174.818 120.219 177.171 119.433 179.609 119.136C182.048 118.839 184.52 119.038 186.88 119.72L259.88 137.97C264.72 138.551 269.132 141.03 272.143 144.864C275.155 148.697 276.521 153.57 275.94 158.41C275.359 163.25 272.879 167.661 269.046 170.673C265.213 173.685 260.34 175.051 255.5 174.47V173.375Z" fill="white"/>
</svg>
