<svg width="1707" height="1683" viewBox="0 0 1707 1683" fill="none" xmlns="http://www.w3.org/2000/svg">
<g clip-path="url(#clip0_119_15)">
<path d="M1568.13 46.3999L1514.67 90.1333L1469.87 145.467L1425.07 200.667L1145.87 479.067C992.267 632.267 866.133 757.333 865.467 757.067C863.467 756.4 513.467 416.933 507.2 409.6C489.6 389.333 471.867 362.667 461.733 341.333C449.467 315.6 442.267 292.267 430 239.333C419.6 194.267 414.133 175.467 405.733 155.6C388.8 115.467 356.267 75.4666 328.533 61.0666C308.133 50.3999 286.267 43.9999 254.667 39.0666C232.933 35.7333 178.8 35.7333 157.467 39.0666C128.8 43.5999 110.933 51.5999 114.4 58.2666C118.4 65.5999 140.4 80.3999 195.867 113.067C216.8 125.333 236.4 137.733 239.467 140.667C244.133 145.2 245.333 147.467 247.2 155.467C250.933 172.267 252.4 195.6 250.8 213.067C248 243.867 241.6 259.733 226.533 273.867C206.667 292.667 184.4 303.733 156.533 308.533C150.4 309.6 139.6 303.867 116.667 287.333C62.5332 248.4 50.2666 240.133 36.6666 233.867C33.0666 232.133 27.7332 230.667 24.9332 230.667C20.6666 230.667 19.7332 231.2 18.5332 234.267C16.2666 240.133 17.9999 255.733 22.6666 269.467C34.9332 306.4 67.3332 355.6 105.6 395.333C140.4 431.467 167.867 441.867 264 454.667C285.867 457.6 310.667 461.333 318.933 462.8C361.6 470.4 392.133 481.867 414.667 498.667C419.467 502.267 501.6 583.467 597.333 679.2L771.333 853.333L754 870.667C744.533 880.133 736 888 735.067 888C734.133 888 725.067 880.667 715.067 871.6C704.933 862.533 695.467 854.533 694 853.733C692.533 852.933 678.8 848 663.6 842.667L635.733 832.933L610.267 858.4L584.8 883.867L584.667 900.933C584.667 916.267 584.267 918.8 581.067 926.4C575.333 940 569.333 949.067 557.333 961.733C522.8 998.267 477.2 1026.13 447.467 1028.93L438.933 1029.73L222.933 1245.87L6.93324 1462L4.7999 1471.33C3.46657 1476.4 1.86657 1482.8 1.1999 1485.47C-2.66676 1500.8 4.66657 1536.13 16.7999 1560.4C33.9999 1594.67 67.7332 1631.87 101.867 1654C123.067 1667.87 139.867 1674.67 164.667 1679.87C184.533 1684 190 1683.73 214 1677.07L223.333 1674.53L438.133 1459.87L652.8 1245.2L654.267 1234.8C658.533 1205.73 676.667 1173.87 710 1136.8C728 1116.93 747.733 1103.6 765.6 1099.33C775.333 1097.07 786.667 1096.8 793.333 1098.67L797.867 1100L823.6 1074.4C837.733 1060.27 849.333 1047.73 849.333 1046.53C849.333 1045.33 844.8 1031.73 839.467 1016.27L829.467 988L812.133 968.533C802.533 957.867 794.667 948.667 794.667 948.133C794.667 947.733 802.4 939.6 811.867 930.133C824.933 917.067 829.6 913.2 831.467 913.867C832.933 914.267 954.933 1035.73 1102.8 1183.6C1345.47 1426.4 1372.4 1453.87 1380 1465.33C1390.4 1481.07 1399.73 1500.67 1411.33 1530.67C1423.47 1562.13 1431.2 1580 1437.6 1592C1464.8 1642.13 1502.93 1671.2 1552.13 1679.47C1590.4 1685.87 1629.07 1671.87 1661.33 1640.13C1685.2 1616.53 1697.2 1594.27 1704 1560.67C1707.47 1543.47 1707.33 1537.47 1703.33 1517.73C1692.27 1462.4 1664.93 1430.4 1607.6 1405.87C1601.87 1403.33 1582.67 1396.13 1564.93 1389.87C1514 1371.6 1494.27 1362.4 1476.8 1348.8C1472.67 1345.6 1452.13 1326.4 1431.07 1305.87C1410 1285.47 1287.87 1167.07 1159.73 1042.93C1031.47 918.8 926.667 816.8 926.667 816.267C926.667 815.733 1052.27 689.733 1205.73 536.4L1484.67 257.333L1539.33 213.067L1593.87 168.667L1635.07 118.667C1657.6 91.1999 1677.33 66.9333 1678.93 64.7999L1681.73 61.0666L1652.53 31.8666C1636.53 15.8666 1622.93 2.66661 1622.4 2.66661C1621.87 2.66661 1597.47 22.3999 1568.13 46.3999ZM1556.8 1448.8C1562.27 1451.33 1567.6 1453.33 1568.53 1453.33C1569.6 1453.33 1575.87 1450.93 1582.53 1447.87C1589.2 1444.93 1595.33 1442.93 1596 1443.33C1596.8 1443.73 1600.8 1448.8 1604.93 1454.4C1609.07 1460 1612.67 1464.93 1612.93 1465.2C1613.2 1465.6 1619.73 1466.53 1627.6 1467.47C1636.13 1468.4 1642.13 1469.73 1642.67 1470.8C1643.33 1471.73 1644.27 1478 1644.67 1484.67C1645.2 1491.47 1646 1497.6 1646.53 1498.27C1646.93 1498.93 1652 1503.07 1657.73 1507.2C1663.47 1511.47 1668.4 1515.6 1668.8 1516.53C1669.2 1517.47 1666.93 1523.6 1664 1530.27C1661.07 1536.93 1658.67 1542.93 1658.67 1543.73C1658.67 1544.4 1661.07 1550.4 1664 1556.8C1667.07 1563.2 1669.2 1569.2 1669.07 1570.13C1668.8 1571.07 1663.6 1575.6 1657.33 1580.27L1646 1588.67L1644.67 1602.4C1643.73 1611.33 1642.67 1616.53 1641.47 1617.2C1640.4 1617.87 1634.53 1618.8 1628.13 1619.33C1621.87 1619.87 1615.47 1620.93 1614 1621.87C1612.53 1622.8 1608 1628.27 1604 1633.87C1600 1639.47 1596 1644 1595.07 1644C1594.13 1644 1587.87 1641.6 1581.33 1638.53C1568 1632.67 1568.93 1632.53 1553.87 1639.47C1548.4 1642 1543.07 1644 1542.13 1644C1541.2 1644 1537.07 1639.2 1532.8 1633.33C1528.67 1627.47 1524.13 1622.13 1522.93 1621.47C1521.73 1620.8 1515.33 1619.87 1508.93 1619.33C1502.13 1618.8 1496.4 1617.6 1495.47 1616.53C1494.4 1615.6 1493.2 1609.87 1492.67 1603.07C1492.13 1596.67 1491.2 1590.27 1490.53 1589.07C1489.87 1587.87 1484.53 1583.33 1478.67 1579.2C1472.8 1574.93 1468 1570.8 1468 1569.87C1468 1569.07 1470.4 1563.07 1473.33 1556.67C1476.27 1550.27 1478.67 1544.4 1478.67 1543.73C1478.67 1542.93 1476.27 1536.93 1473.33 1530.27C1470.4 1523.6 1468.13 1517.47 1468.53 1516.53C1468.93 1515.6 1473.87 1511.47 1479.6 1507.2C1485.33 1503.07 1490.27 1499.47 1490.53 1499.2C1490.8 1498.93 1491.73 1492.53 1492.53 1484.8C1493.47 1477.07 1494.53 1470.4 1495.07 1469.87C1495.47 1469.47 1502.13 1468.27 1509.87 1467.47C1517.6 1466.53 1524.13 1465.6 1524.4 1465.2C1524.67 1464.93 1527.47 1461.07 1530.67 1456.67C1539.33 1444.67 1541.47 1442.53 1544.4 1443.47C1545.73 1443.87 1551.33 1446.27 1556.8 1448.8Z" fill="white"/>
</g>
<defs>
<clipPath id="clip0_119_15">
<rect width="1706.67" height="1682.67" fill="white"/>
</clipPath>
</defs>
</svg>
